<svg xmlns="http://www.w3.org/2000/svg" xmlns:xlink="http://www.w3.org/1999/xlink" width="500" zoomAndPan="magnify" viewBox="0 0 375 374.999991" height="500" preserveAspectRatio="xMidYMid meet" version="1.0"><defs><g/><clipPath id="7aacf6d506"><path d="M 78 56 L 147.398438 56 L 147.398438 191 L 78 191 Z M 78 56 " clip-rule="nonzero"/></clipPath><clipPath id="735df8798d"><path d="M 37.898438 42.746094 L 135 42.746094 L 135 105 L 37.898438 105 Z M 37.898438 42.746094 " clip-rule="nonzero"/></clipPath><clipPath id="a76783e5e4"><path d="M 161 40.53125 L 208 40.53125 L 208 191 L 161 191 Z M 161 40.53125 " clip-rule="nonzero"/></clipPath><clipPath id="c148ad47ea"><path d="M 224.429688 42.746094 L 329.265625 42.746094 L 329.265625 191 L 224.429688 191 Z M 224.429688 42.746094 " clip-rule="nonzero"/></clipPath></defs><g fill="#545454" fill-opacity="1"><g transform="translate(62.59849, 271.802296)"><g><path d="M 10.546875 0 L 2.8125 0 L 2.8125 -49.234375 L 10.546875 -49.234375 L 10.546875 -28.125 L 19.34375 -28.125 L 19.34375 -49.234375 L 27.21875 -49.234375 L 27.21875 0 L 19.34375 0 L 19.34375 -21.09375 L 10.546875 -21.09375 Z M 10.546875 0 "/></g></g></g><g fill="#545454" fill-opacity="1"><g transform="translate(93.75223, 271.802296)"><g><path d="M 27.84375 0 L 20.046875 0 L 18.703125 -8.9375 L 9.21875 -8.9375 L 7.875 0 L 0.78125 0 L 8.65625 -49.234375 L 19.96875 -49.234375 Z M 10.203125 -15.609375 L 17.65625 -15.609375 L 13.921875 -40.515625 Z M 10.203125 -15.609375 "/></g></g></g><g fill="#545454" fill-opacity="1"><g transform="translate(123.499491, 271.802296)"><g><path d="M 9.703125 -35.65625 L 9.703125 0 L 2.75 0 L 2.75 -49.234375 L 12.453125 -49.234375 L 20.390625 -19.765625 L 20.390625 -49.234375 L 27.28125 -49.234375 L 27.28125 0 L 19.34375 0 Z M 9.703125 -35.65625 "/></g></g></g><g fill="#545454" fill-opacity="1"><g transform="translate(154.65323, 271.802296)"><g><path d="M 2.8125 -49.234375 L 15.046875 -49.234375 C 18.941406 -49.234375 21.835938 -48.203125 23.734375 -46.140625 C 25.628906 -44.078125 26.578125 -41.050781 26.578125 -37.0625 L 26.578125 -12.171875 C 26.578125 -8.179688 25.628906 -5.15625 23.734375 -3.09375 C 21.835938 -1.03125 18.941406 0 15.046875 0 L 2.8125 0 Z M 10.546875 -42.203125 L 10.546875 -7.03125 L 14.90625 -7.03125 C 16.125 -7.03125 17.082031 -7.378906 17.78125 -8.078125 C 18.488281 -8.785156 18.84375 -10.03125 18.84375 -11.8125 L 18.84375 -37.421875 C 18.84375 -39.203125 18.488281 -40.441406 17.78125 -41.140625 C 17.082031 -41.847656 16.125 -42.203125 14.90625 -42.203125 Z M 10.546875 -42.203125 "/></g></g></g><g fill="#545454" fill-opacity="1"><g transform="translate(184.470815, 271.802296)"><g><path d="M 10.0625 -16.3125 L 0.28125 -49.234375 L 8.375 -49.234375 L 14.28125 -26.796875 L 20.1875 -49.234375 L 27.5625 -49.234375 L 17.796875 -16.3125 L 17.796875 0 L 10.0625 0 Z M 10.0625 -16.3125 "/></g></g></g><g fill="#545454" fill-opacity="1"><g transform="translate(213.444496, 271.802296)"><g><path d="M 19.203125 -14.28125 L 24.46875 -49.234375 L 35.234375 -49.234375 L 35.234375 0 L 27.921875 0 L 27.921875 -35.3125 L 22.578125 0 L 15.265625 0 L 9.5 -34.8125 L 9.5 0 L 2.75 0 L 2.75 -49.234375 L 13.5 -49.234375 Z M 19.203125 -14.28125 "/></g></g></g><g fill="#545454" fill-opacity="1"><g transform="translate(252.615217, 271.802296)"><g><path d="M 27.84375 0 L 20.046875 0 L 18.703125 -8.9375 L 9.21875 -8.9375 L 7.875 0 L 0.78125 0 L 8.65625 -49.234375 L 19.96875 -49.234375 Z M 10.203125 -15.609375 L 17.65625 -15.609375 L 13.921875 -40.515625 Z M 10.203125 -15.609375 "/></g></g></g><g fill="#545454" fill-opacity="1"><g transform="translate(282.362484, 271.802296)"><g><path d="M 9.703125 -35.65625 L 9.703125 0 L 2.75 0 L 2.75 -49.234375 L 12.453125 -49.234375 L 20.390625 -19.765625 L 20.390625 -49.234375 L 27.28125 -49.234375 L 27.28125 0 L 19.34375 0 Z M 9.703125 -35.65625 "/></g></g></g><path stroke-linecap="round" transform="matrix(0.75, 0, 0, 0.75, 147.555624, 294.863448)" fill="none" stroke-linejoin="miter" d="M 0.998752 0.999778 L 105.519592 0.999778 " stroke="#545454" stroke-width="2" stroke-opacity="1" stroke-miterlimit="4"/><path fill="#f57f25" d="M 54.65625 90.964844 C 52.933594 90.964844 51.539062 92.359375 51.539062 94.085938 C 51.539062 95.808594 52.933594 97.203125 54.65625 97.203125 C 56.378906 97.203125 57.773438 95.808594 57.773438 94.085938 C 57.773438 92.359375 56.378906 90.964844 54.65625 90.964844 Z M 54.65625 90.964844 " fill-opacity="1" fill-rule="nonzero"/><g clip-path="url(#7aacf6d506)"><path fill="#7e7f7f" d="M 138.347656 56.066406 L 134.574219 56.066406 L 134.574219 61.03125 L 138.355469 61.03125 C 140.691406 61.03125 142.585938 62.925781 142.585938 65.257812 L 142.585938 78.683594 C 142.585938 80.722656 141.609375 82.667969 139.980469 83.890625 L 89.929688 115.886719 C 86.582031 118.402344 84.582031 122.410156 84.582031 126.601562 L 84.582031 136.457031 L 82.566406 136.457031 C 80.554688 136.457031 78.933594 138.078125 78.933594 140.089844 L 78.933594 187.210938 C 78.933594 189.214844 80.554688 190.84375 82.566406 190.84375 L 91.863281 190.84375 C 93.875 190.84375 95.496094 189.210938 95.496094 187.210938 L 95.496094 140.089844 C 95.496094 138.082031 93.875 136.457031 91.863281 136.457031 L 89.546875 136.457031 L 89.546875 126.605469 C 89.546875 123.964844 90.804688 121.445312 92.914062 119.867188 L 142.964844 87.871094 C 145.832031 85.710938 147.550781 82.277344 147.550781 78.6875 L 147.550781 65.257812 C 147.550781 60.1875 143.421875 56.066406 138.347656 56.066406 Z M 89.648438 182.730469 C 89.648438 184.074219 88.558594 185.160156 87.214844 185.160156 C 85.871094 185.160156 84.78125 184.074219 84.78125 182.730469 C 84.78125 181.386719 85.871094 180.296875 87.214844 180.296875 C 88.558594 180.296875 89.648438 181.382812 89.648438 182.730469 Z M 89.648438 182.730469 " fill-opacity="1" fill-rule="nonzero"/></g><g clip-path="url(#735df8798d)"><path fill="#f57f25" d="M 134.554688 56.066406 L 134.554688 65.574219 L 134.554688 53.046875 C 134.554688 50.742188 132.851562 48.800781 130.578125 48.480469 L 128.144531 48.144531 L 128.144531 47.574219 C 128.136719 47.394531 128.128906 47.214844 128.109375 47.042969 C 128.101562 47 128.09375 46.953125 128.085938 46.90625 C 128.074219 46.769531 128.042969 46.636719 128.015625 46.507812 C 128.011719 46.472656 127.996094 46.429688 127.988281 46.390625 C 127.953125 46.242188 127.902344 46.09375 127.851562 45.949219 C 127.84375 45.941406 127.84375 45.925781 127.835938 45.914062 C 127.25 44.363281 125.875 43.195312 124.203125 42.902344 C 124.175781 42.894531 124.148438 42.894531 124.117188 42.886719 C 123.878906 42.859375 123.636719 42.828125 123.386719 42.828125 L 42.660156 42.828125 C 40.035156 42.828125 37.902344 44.960938 37.902344 47.585938 L 37.902344 71.957031 C 37.902344 72.691406 38.074219 73.394531 38.382812 74.023438 C 38.4375 74.144531 38.503906 74.257812 38.570312 74.371094 C 38.660156 74.527344 38.769531 74.679688 38.875 74.820312 C 39.003906 74.992188 39.148438 75.164062 39.300781 75.316406 C 39.40625 75.421875 39.523438 75.523438 39.636719 75.625 C 40.460938 76.304688 41.511719 76.710938 42.664062 76.710938 L 51.546875 76.710938 L 51.546875 83.625 C 51.546875 85.640625 53.199219 87.292969 55.214844 87.292969 C 57.230469 87.292969 58.882812 85.640625 58.882812 83.625 L 58.882812 76.710938 L 62.1875 76.710938 L 62.1875 100.863281 C 62.1875 103.082031 64.003906 104.898438 66.222656 104.898438 C 68.4375 104.898438 70.257812 103.082031 70.257812 100.863281 L 70.257812 76.699219 L 123.402344 76.699219 C 123.652344 76.699219 123.894531 76.671875 124.136719 76.636719 C 124.160156 76.628906 124.1875 76.628906 124.21875 76.621094 C 125.890625 76.328125 127.265625 75.160156 127.851562 73.609375 C 127.855469 73.605469 127.855469 73.589844 127.867188 73.574219 C 127.914062 73.421875 127.964844 73.28125 128 73.128906 C 128.007812 73.09375 128.023438 73.050781 128.03125 73.015625 C 128.0625 72.886719 128.082031 72.75 128.101562 72.617188 C 128.109375 72.570312 128.117188 72.53125 128.121094 72.480469 C 128.144531 72.308594 128.160156 72.128906 128.160156 71.949219 L 128.160156 71.378906 L 130.589844 71.039062 C 130.867188 70.996094 131.144531 70.933594 131.410156 70.847656 C 131.933594 70.675781 132.421875 70.402344 132.84375 70.070312 C 133.171875 69.804688 133.457031 69.484375 133.699219 69.132812 C 133.816406 68.964844 133.921875 68.792969 134.015625 68.617188 C 134.359375 67.972656 134.558594 67.25 134.558594 66.484375 L 134.558594 61.03125 L 134.578125 61.03125 L 134.578125 56.066406 Z M 134.554688 56.066406 " fill-opacity="1" fill-rule="nonzero"/></g><path fill="#f57f25" d="M 65.878906 114.453125 C 65.878906 114.460938 65.871094 114.46875 65.871094 114.484375 C 65.007812 117.824219 60.601562 119.636719 60.601562 123.953125 C 60.601562 126.863281 62.960938 129.234375 65.871094 129.242188 L 65.894531 129.242188 C 68.804688 129.234375 71.167969 126.867188 71.167969 123.953125 C 71.167969 119.636719 66.761719 117.832031 65.894531 114.484375 C 65.894531 114.476562 65.894531 114.464844 65.878906 114.453125 Z M 65.878906 114.453125 " fill-opacity="1" fill-rule="nonzero"/><path fill="#ffffff" d="M 121.882812 49.507812 C 121.703125 49.609375 121.503906 49.679688 121.296875 49.71875 C 121.253906 49.722656 121.203125 49.738281 121.160156 49.753906 C 121.117188 49.765625 121.070312 49.773438 121.019531 49.773438 L 121.019531 49.777344 L 45.828125 49.777344 C 45.453125 49.777344 45.121094 49.664062 44.832031 49.472656 C 44.363281 49.148438 44.046875 48.605469 44.046875 47.996094 C 44.046875 47.511719 44.238281 47.050781 44.566406 46.730469 C 44.894531 46.40625 45.339844 46.207031 45.824219 46.207031 L 121.015625 46.207031 C 121.496094 46.207031 121.925781 46.402344 122.238281 46.71875 C 122.425781 46.90625 122.574219 47.132812 122.667969 47.390625 C 122.738281 47.582031 122.789062 47.773438 122.789062 47.992188 C 122.792969 48.652344 122.421875 49.207031 121.882812 49.507812 Z M 121.882812 49.507812 " fill-opacity="1" fill-rule="nonzero"/><g clip-path="url(#a76783e5e4)"><path fill="#7e7f7f" d="M 206.121094 56.050781 C 203.246094 47.5 195.816406 41.796875 187.441406 40.671875 L 193.851562 59.75 C 194.621094 62.050781 193.386719 64.539062 191.085938 65.316406 L 180.308594 68.9375 C 178.007812 69.707031 175.519531 68.472656 174.742188 66.171875 L 168.335938 47.097656 C 162.339844 53.046875 159.859375 62.085938 162.734375 70.632812 C 164.757812 76.652344 169.046875 81.269531 174.328125 83.867188 C 179.480469 86.402344 182.75 91.636719 182.574219 97.378906 L 179.660156 180.601562 C 179.496094 185.855469 183.519531 190.527344 188.773438 190.648438 C 194.164062 190.777344 198.535156 186.355469 198.367188 180.996094 L 195.253906 91.25 C 195.125 87.070312 196.796875 83.023438 199.882812 80.195312 C 206.34375 74.277344 209.097656 64.902344 206.121094 56.050781 Z M 189.003906 179.316406 C 187.03125 179.316406 185.4375 177.71875 185.4375 175.746094 C 185.4375 173.773438 187.035156 172.175781 189.003906 172.175781 C 190.980469 172.175781 192.574219 173.777344 192.574219 175.746094 C 192.570312 177.722656 190.972656 179.316406 189.003906 179.316406 Z M 189.003906 179.316406 " fill-opacity="1" fill-rule="nonzero"/></g><g clip-path="url(#c148ad47ea)"><path fill="#f57f25" d="M 242.984375 47.09375 C 248.199219 47.09375 252.757812 45.351562 255.289062 42.746094 L 289.988281 42.746094 C 311.578125 42.746094 329.246094 60.410156 329.246094 82.003906 C 329.246094 83.199219 327.605469 83.5 327.117188 82.410156 C 321.15625 69.074219 307.753906 59.726562 292.269531 59.726562 L 282.265625 59.726562 C 279.082031 59.726562 276.457031 62.222656 276.296875 65.402344 L 275.589844 79.429688 L 272.152344 79.429688 L 272.152344 183.136719 C 272.152344 187.4375 268.660156 190.929688 264.355469 190.929688 L 263.835938 190.929688 C 259.535156 190.929688 256.042969 187.4375 256.042969 183.136719 L 256.042969 79.429688 L 253.429688 79.429688 L 252.617188 63.347656 C 252.476562 60.617188 250.566406 58.265625 247.902344 57.65625 C 246.371094 57.304688 244.714844 57.109375 242.984375 57.109375 C 239.027344 57.109375 235.449219 58.109375 232.839844 59.726562 L 224.457031 59.726562 L 224.457031 42.746094 L 230.675781 42.746094 C 233.207031 45.347656 237.761719 47.09375 242.984375 47.09375 Z M 264.09375 181.835938 C 265.878906 181.835938 267.324219 180.390625 267.324219 178.605469 C 267.324219 176.820312 265.878906 175.375 264.09375 175.375 C 262.3125 175.375 260.863281 176.820312 260.863281 178.605469 C 260.863281 180.390625 262.316406 181.835938 264.09375 181.835938 Z M 264.09375 181.835938 " fill-opacity="1" fill-rule="nonzero"/></g><g fill="#545454" fill-opacity="1"><g transform="translate(95.738798, 329.074198)"><g><path d="M 6.140625 -6.046875 L 3.5 -6.046875 L 3.5 0 L 1.609375 0 L 1.609375 -14.96875 L 5.8125 -14.96875 C 7.269531 -14.96875 8.375 -14.582031 9.125 -13.8125 C 9.882812 -13.050781 10.265625 -11.9375 10.265625 -10.46875 C 10.265625 -9.539062 10.0625 -8.734375 9.65625 -8.046875 C 9.25 -7.359375 8.671875 -6.835938 7.921875 -6.484375 L 10.828125 -0.125 L 10.828125 0 L 8.796875 0 Z M 3.5 -7.671875 L 5.78125 -7.671875 C 6.570312 -7.671875 7.203125 -7.921875 7.671875 -8.421875 C 8.140625 -8.929688 8.375 -9.613281 8.375 -10.46875 C 8.375 -12.382812 7.503906 -13.34375 5.765625 -13.34375 L 3.5 -13.34375 Z M 3.5 -7.671875 "/></g></g></g><g fill="#545454" fill-opacity="1"><g transform="translate(110.362369, 329.074198)"><g><path d="M 8.78125 -6.921875 L 3.5 -6.921875 L 3.5 -1.609375 L 9.65625 -1.609375 L 9.65625 0 L 1.609375 0 L 1.609375 -14.96875 L 9.5625 -14.96875 L 9.5625 -13.34375 L 3.5 -13.34375 L 3.5 -8.53125 L 8.78125 -8.53125 Z M 8.78125 -6.921875 "/></g></g></g><g fill="#545454" fill-opacity="1"><g transform="translate(124.266565, 329.074198)"><g><path d="M 3.5 -5.859375 L 3.5 0 L 1.609375 0 L 1.609375 -14.96875 L 6.375 -14.96875 C 7.769531 -14.96875 8.863281 -14.550781 9.65625 -13.71875 C 10.457031 -12.882812 10.859375 -11.773438 10.859375 -10.390625 C 10.859375 -8.953125 10.476562 -7.84375 9.71875 -7.0625 C 8.957031 -6.289062 7.890625 -5.890625 6.515625 -5.859375 Z M 3.5 -7.46875 L 6.375 -7.46875 C 7.21875 -7.46875 7.859375 -7.71875 8.296875 -8.21875 C 8.742188 -8.71875 8.96875 -9.4375 8.96875 -10.375 C 8.96875 -11.269531 8.738281 -11.988281 8.28125 -12.53125 C 7.820312 -13.070312 7.191406 -13.34375 6.390625 -13.34375 L 3.5 -13.34375 Z M 3.5 -7.46875 "/></g></g></g><g fill="#545454" fill-opacity="1"><g transform="translate(139.383422, 329.074198)"><g><path d="M 8.59375 -3.90625 L 3.53125 -3.90625 L 2.375 0 L 0.4375 0 L 5.265625 -14.96875 L 6.875 -14.96875 L 11.703125 0 L 9.765625 0 Z M 4.03125 -5.53125 L 8.109375 -5.53125 L 6.0625 -12.328125 Z M 4.03125 -5.53125 "/></g></g></g><g fill="#545454" fill-opacity="1"><g transform="translate(154.962736, 329.074198)"><g><path d="M 3.578125 0 L 1.703125 0 L 1.703125 -14.96875 L 3.578125 -14.96875 Z M 3.578125 0 "/></g></g></g><g fill="#545454" fill-opacity="1"><g transform="translate(163.677148, 329.074198)"><g><path d="M 6.140625 -6.046875 L 3.5 -6.046875 L 3.5 0 L 1.609375 0 L 1.609375 -14.96875 L 5.8125 -14.96875 C 7.269531 -14.96875 8.375 -14.582031 9.125 -13.8125 C 9.882812 -13.050781 10.265625 -11.9375 10.265625 -10.46875 C 10.265625 -9.539062 10.0625 -8.734375 9.65625 -8.046875 C 9.25 -7.359375 8.671875 -6.835938 7.921875 -6.484375 L 10.828125 -0.125 L 10.828125 0 L 8.796875 0 Z M 3.5 -7.671875 L 5.78125 -7.671875 C 6.570312 -7.671875 7.203125 -7.921875 7.671875 -8.421875 C 8.140625 -8.929688 8.375 -9.613281 8.375 -10.46875 C 8.375 -12.382812 7.503906 -13.34375 5.765625 -13.34375 L 3.5 -13.34375 Z M 3.5 -7.671875 "/></g></g></g><g fill="#545454" fill-opacity="1"><g transform="translate(178.300716, 329.074198)"><g/></g></g><g fill="#545454" fill-opacity="1"><g transform="translate(186.573226, 329.074198)"><g><path d="M 8.15625 -3.78125 C 8.15625 -4.53125 7.953125 -5.101562 7.546875 -5.5 C 7.140625 -5.894531 6.40625 -6.28125 5.34375 -6.65625 C 4.289062 -7.03125 3.484375 -7.425781 2.921875 -7.84375 C 2.367188 -8.257812 1.953125 -8.734375 1.671875 -9.265625 C 1.398438 -9.796875 1.265625 -10.40625 1.265625 -11.09375 C 1.265625 -12.269531 1.660156 -13.242188 2.453125 -14.015625 C 3.242188 -14.785156 4.28125 -15.171875 5.5625 -15.171875 C 6.4375 -15.171875 7.21875 -14.972656 7.90625 -14.578125 C 8.59375 -14.179688 9.117188 -13.632812 9.484375 -12.9375 C 9.859375 -12.238281 10.046875 -11.472656 10.046875 -10.640625 L 8.15625 -10.640625 C 8.15625 -11.566406 7.929688 -12.28125 7.484375 -12.78125 C 7.035156 -13.289062 6.394531 -13.546875 5.5625 -13.546875 C 4.800781 -13.546875 4.210938 -13.332031 3.796875 -12.90625 C 3.378906 -12.476562 3.171875 -11.882812 3.171875 -11.125 C 3.171875 -10.488281 3.394531 -9.957031 3.84375 -9.53125 C 4.289062 -9.113281 4.988281 -8.734375 5.9375 -8.390625 C 7.414062 -7.910156 8.46875 -7.3125 9.09375 -6.59375 C 9.726562 -5.882812 10.046875 -4.953125 10.046875 -3.796875 C 10.046875 -2.585938 9.648438 -1.617188 8.859375 -0.890625 C 8.078125 -0.160156 7.007812 0.203125 5.65625 0.203125 C 4.78125 0.203125 3.972656 0.015625 3.234375 -0.359375 C 2.503906 -0.742188 1.925781 -1.28125 1.5 -1.96875 C 1.082031 -2.65625 0.875 -3.445312 0.875 -4.34375 L 2.765625 -4.34375 C 2.765625 -3.414062 3.019531 -2.691406 3.53125 -2.171875 C 4.050781 -1.660156 4.757812 -1.40625 5.65625 -1.40625 C 6.476562 -1.40625 7.097656 -1.617188 7.515625 -2.046875 C 7.941406 -2.472656 8.15625 -3.050781 8.15625 -3.78125 Z M 8.15625 -3.78125 "/></g></g></g><g fill="#545454" fill-opacity="1"><g transform="translate(200.929598, 329.074198)"><g><path d="M 8.78125 -6.921875 L 3.5 -6.921875 L 3.5 -1.609375 L 9.65625 -1.609375 L 9.65625 0 L 1.609375 0 L 1.609375 -14.96875 L 9.5625 -14.96875 L 9.5625 -13.34375 L 3.5 -13.34375 L 3.5 -8.53125 L 8.78125 -8.53125 Z M 8.78125 -6.921875 "/></g></g></g><g fill="#545454" fill-opacity="1"><g transform="translate(214.833791, 329.074198)"><g><path d="M 6.140625 -6.046875 L 3.5 -6.046875 L 3.5 0 L 1.609375 0 L 1.609375 -14.96875 L 5.8125 -14.96875 C 7.269531 -14.96875 8.375 -14.582031 9.125 -13.8125 C 9.882812 -13.050781 10.265625 -11.9375 10.265625 -10.46875 C 10.265625 -9.539062 10.0625 -8.734375 9.65625 -8.046875 C 9.25 -7.359375 8.671875 -6.835938 7.921875 -6.484375 L 10.828125 -0.125 L 10.828125 0 L 8.796875 0 Z M 3.5 -7.671875 L 5.78125 -7.671875 C 6.570312 -7.671875 7.203125 -7.921875 7.671875 -8.421875 C 8.140625 -8.929688 8.375 -9.613281 8.375 -10.46875 C 8.375 -12.382812 7.503906 -13.34375 5.765625 -13.34375 L 3.5 -13.34375 Z M 3.5 -7.671875 "/></g></g></g><g fill="#545454" fill-opacity="1"><g transform="translate(229.45736, 329.074198)"><g><path d="M 5.890625 -2.890625 L 9.3125 -14.96875 L 11.375 -14.96875 L 6.71875 0 L 5.078125 0 L 0.4375 -14.96875 L 2.484375 -14.96875 Z M 5.890625 -2.890625 "/></g></g></g><g fill="#545454" fill-opacity="1"><g transform="translate(244.697536, 329.074198)"><g><path d="M 3.578125 0 L 1.703125 0 L 1.703125 -14.96875 L 3.578125 -14.96875 Z M 3.578125 0 "/></g></g></g><g fill="#545454" fill-opacity="1"><g transform="translate(253.411948, 329.074198)"><g><path d="M 11 -4.75 C 10.914062 -3.144531 10.460938 -1.914062 9.640625 -1.0625 C 8.828125 -0.21875 7.671875 0.203125 6.171875 0.203125 C 4.671875 0.203125 3.476562 -0.363281 2.59375 -1.5 C 1.71875 -2.644531 1.28125 -4.191406 1.28125 -6.140625 L 1.28125 -8.859375 C 1.28125 -10.804688 1.734375 -12.34375 2.640625 -13.46875 C 3.546875 -14.601562 4.78125 -15.171875 6.34375 -15.171875 C 7.789062 -15.171875 8.910156 -14.734375 9.703125 -13.859375 C 10.492188 -12.992188 10.925781 -11.757812 11 -10.15625 L 9.09375 -10.15625 C 9.007812 -11.375 8.75 -12.242188 8.3125 -12.765625 C 7.882812 -13.285156 7.226562 -13.546875 6.34375 -13.546875 C 5.320312 -13.546875 4.535156 -13.144531 3.984375 -12.34375 C 3.441406 -11.550781 3.171875 -10.382812 3.171875 -8.84375 L 3.171875 -6.09375 C 3.171875 -4.582031 3.425781 -3.421875 3.9375 -2.609375 C 4.445312 -1.796875 5.191406 -1.390625 6.171875 -1.390625 C 7.148438 -1.390625 7.851562 -1.632812 8.28125 -2.125 C 8.71875 -2.613281 8.988281 -3.488281 9.09375 -4.75 Z M 11 -4.75 "/></g></g></g><g fill="#545454" fill-opacity="1"><g transform="translate(268.795999, 329.074198)"><g><path d="M 8.78125 -6.921875 L 3.5 -6.921875 L 3.5 -1.609375 L 9.65625 -1.609375 L 9.65625 0 L 1.609375 0 L 1.609375 -14.96875 L 9.5625 -14.96875 L 9.5625 -13.34375 L 3.5 -13.34375 L 3.5 -8.53125 L 8.78125 -8.53125 Z M 8.78125 -6.921875 "/></g></g></g></svg>